<svg width="127" height="127" viewBox="0 0 127 127" fill="none" xmlns="http://www.w3.org/2000/svg">
<path fill-rule="evenodd" clip-rule="evenodd" d="M63 45C53.0589 45 45 53.0589 45 63C45 72.9411 53.0589 81 63 81C72.9411 81 81 72.9411 81 63C81 53.0589 72.9411 45 63 45ZM47 63C47 54.1634 54.1634 47 63 47C71.8366 47 79 54.1634 79 63C79 71.8366 71.8366 79 63 79C54.1634 79 47 71.8366 47 63Z" fill="black"/>
<path fill-rule="evenodd" clip-rule="evenodd" d="M63.5 0C60.2204 0 57.0751 1.30282 54.7561 3.62186C52.437 5.94089 51.1342 9.08618 51.1342 12.3658V13.3295C51.1273 14.9616 50.6436 16.5561 49.7424 17.9168C48.8778 19.2224 47.6651 20.2582 46.2434 20.9082H46.0007C45.8613 20.9082 45.7234 20.9373 45.5959 20.9936C44.0655 21.669 42.3679 21.8705 40.722 21.572C39.0778 21.2739 37.5605 20.4906 36.3653 19.323L36.0283 18.9861C34.88 17.8365 33.5163 16.9246 32.0153 16.3023C30.5141 15.68 28.905 15.3597 27.2799 15.3597C25.6549 15.3597 24.0458 15.68 22.5446 16.3023C21.0437 16.9245 19.6802 17.8363 18.5319 18.9857C17.3822 20.1341 16.4701 21.4979 15.8478 22.9991C15.2255 24.5003 14.9052 26.1094 14.9052 27.7345C14.9052 29.3595 15.2255 30.9686 15.8478 32.4698C16.4701 33.971 17.3822 35.3348 18.5319 36.4833L18.8684 36.8197C20.0361 38.015 20.8194 39.5323 21.1175 41.1765C21.4159 42.8224 21.2145 44.5201 20.539 46.0504C20.5305 46.0698 20.5226 46.0894 20.5153 46.1092C19.9354 47.6858 18.8947 49.0516 17.5283 50.0288C16.165 51.0039 14.5405 51.5473 12.8651 51.5887H12.3658C9.08618 51.5887 5.94089 52.8916 3.62186 55.2106C1.30282 57.5296 0 60.6749 0 63.9545C0 67.2341 1.30282 70.3794 3.62186 72.6985C5.94089 75.0175 9.08618 76.3203 12.3658 76.3203L13.3277 76.3203L13.3295 76.3203C14.9616 76.3272 16.5561 76.811 17.9168 77.7121C19.2781 78.6136 20.346 79.8935 20.9892 81.3943L20.9936 81.4041C21.669 82.9345 21.8705 84.6321 21.572 86.278C21.2739 87.9222 20.4906 89.4396 19.3229 90.6348L19.3192 90.6386L18.9861 90.9717C17.8365 92.12 16.9246 93.4837 16.3023 94.9847C15.68 96.4859 15.3597 98.095 15.3597 99.7201C15.3597 101.345 15.68 102.954 16.3023 104.455C16.9245 105.956 17.8363 107.32 18.9857 108.468C20.1341 109.618 21.4979 110.53 22.9991 111.152C24.5003 111.774 26.1094 112.095 27.7345 112.095C29.3595 112.095 30.9686 111.774 32.4698 111.152C33.971 110.53 35.3348 109.618 36.4833 108.468L36.8159 108.135L36.8198 108.132C38.015 106.964 39.5323 106.181 41.1765 105.882C42.8224 105.584 44.5201 105.786 46.0504 106.461C46.0594 106.465 46.0684 106.469 46.0774 106.472C46.0879 106.477 46.0985 106.481 46.1092 106.485C47.6858 107.065 49.0516 108.105 50.0288 109.472C51.0039 110.835 51.5473 112.459 51.5887 114.135V114.634C51.5887 117.914 52.8916 121.059 55.2106 123.378C57.5296 125.697 60.6749 127 63.9545 127C67.2341 127 70.3794 125.697 72.6984 123.378C75.0175 121.059 76.3203 117.914 76.3203 114.634L76.3203 113.672L76.3203 113.67C76.3272 112.038 76.811 110.444 77.7121 109.083C78.6136 107.722 79.8935 106.654 81.3942 106.011L81.4041 106.006C82.9345 105.331 84.6321 105.13 86.278 105.428C87.9221 105.726 89.4394 106.509 90.6345 107.677L90.6386 107.681L90.9717 108.014C92.12 109.163 93.4837 110.075 94.9847 110.698C96.4859 111.32 98.095 111.64 99.7201 111.64C101.345 111.64 102.954 111.32 104.455 110.698C105.956 110.075 107.32 109.163 108.468 108.014C109.618 106.866 110.53 105.502 111.152 104.001C111.774 102.5 112.095 100.891 112.095 99.2655C112.095 97.6405 111.774 96.0314 111.152 94.5302C110.53 93.0292 109.618 91.6651 108.468 90.5167L108.135 90.1841L108.131 90.18C106.964 88.9848 106.181 87.4676 105.882 85.8235C105.584 84.1776 105.786 82.48 106.461 80.9496L106.465 80.9397C107.108 79.439 108.176 78.1591 109.538 77.2576C110.898 76.3564 112.493 75.8727 114.125 75.8658L114.127 75.8658L114.634 75.8658C117.914 75.8658 121.059 74.563 123.378 72.2439C125.697 69.9249 127 66.7796 127 63.5C127 60.2204 125.697 57.0751 123.378 54.7561C121.059 52.437 117.914 51.1342 114.634 51.1342H113.67C112.038 51.1273 110.444 50.6436 109.083 49.7424C107.778 48.8778 106.742 47.6651 106.092 46.2434V46.0007C106.092 45.8613 106.063 45.7234 106.006 45.5959C105.331 44.0655 105.13 42.3679 105.428 40.722C105.726 39.0778 106.509 37.5605 107.677 36.3653L107.681 36.3614L108.014 36.0287C109.163 34.8803 110.075 33.5165 110.698 32.0153C111.32 30.5141 111.64 28.905 111.64 27.2799C111.64 25.6549 111.32 24.0458 110.698 22.5446C110.075 21.0434 109.163 19.6796 108.014 18.5311C106.865 17.3818 105.502 16.47 104.001 15.8478C102.5 15.2255 100.891 14.9052 99.2655 14.9052C97.6405 14.9052 96.0314 15.2255 94.5302 15.8478C93.0292 16.47 91.6651 17.3824 90.5167 18.5319L90.1841 18.8647L90.1803 18.8683C88.9851 20.036 87.4678 20.8194 85.8235 21.1175C84.1776 21.4159 82.4799 21.2144 80.9496 20.539L80.9397 20.5348C79.439 19.8916 78.1591 18.8236 77.2576 17.4623C76.3564 16.1016 75.8727 14.5071 75.8658 12.875L75.8658 12.8731L75.8658 12.3658C75.8658 9.08618 74.563 5.94089 72.2439 3.62186C69.9249 1.30282 66.7796 0 63.5 0ZM56.174 5.03979C58.117 3.09682 60.7522 2.00526 63.5 2.00526C66.2478 2.00526 68.883 3.09682 70.826 5.03979C72.769 6.98277 73.8605 9.61801 73.8605 12.3658V12.8771L73.8605 12.8811C73.8686 14.9049 74.4683 16.8822 75.5857 18.5695C76.7022 20.2554 78.2868 21.5783 80.1449 22.3758C82.0405 23.2112 84.1429 23.4602 86.1813 23.0906C88.2215 22.7207 90.1041 21.7481 91.5863 20.2982L91.9354 19.9491C92.8977 18.9858 94.0403 18.2216 95.2981 17.7002C96.5558 17.1788 97.904 16.9105 99.2655 16.9105C100.627 16.9105 101.975 17.1788 103.233 17.7002C104.491 18.2216 105.633 18.9858 106.596 19.9491L106.596 19.9499C107.56 20.9121 108.324 22.0547 108.845 23.3125C109.367 24.5702 109.635 25.9184 109.635 27.2799C109.635 28.6415 109.367 29.9896 108.845 31.2474C108.324 32.5051 107.559 33.6482 106.596 34.6104L106.255 34.9513L106.247 34.9592C104.797 36.4414 103.825 38.324 103.455 40.3642C103.098 42.3333 103.318 44.3621 104.087 46.2066V46.4553C104.087 46.591 104.114 46.7254 104.168 46.8502C104.965 48.7104 106.289 50.2968 107.976 51.4143C109.663 52.5317 111.641 53.1314 113.664 53.1395L113.668 53.1395H114.634C117.382 53.1395 120.017 54.231 121.96 56.174C123.903 58.117 124.995 60.7522 124.995 63.5C124.995 66.2478 123.903 68.883 121.96 70.826C120.017 72.769 117.382 73.8605 114.634 73.8605L114.123 73.8605L114.119 73.8605C112.095 73.8686 110.118 74.4683 108.43 75.5857C106.745 76.7021 105.422 78.2866 104.624 80.1444C103.789 82.0402 103.54 84.1427 103.909 86.1813C104.279 88.2215 105.252 90.1041 106.702 91.5864L107.051 91.9355C108.014 92.8977 108.778 94.0403 109.3 95.2981C109.821 96.5558 110.09 97.904 110.09 99.2655C110.09 100.627 109.821 101.975 109.3 103.233C108.778 104.491 108.014 105.633 107.051 106.596L107.05 106.596C106.088 107.56 104.945 108.324 103.688 108.845C102.43 109.367 101.082 109.635 99.7201 109.635C98.3585 109.635 97.0103 109.367 95.7526 108.845C94.4948 108.324 93.3518 107.559 92.3896 106.596L92.0487 106.255L92.0408 106.247C90.5586 104.797 88.676 103.825 86.6358 103.455C84.5972 103.085 82.4947 103.334 80.5989 104.17C78.7411 104.967 77.1566 106.29 76.0402 107.976C74.9228 109.663 74.3231 111.641 74.3151 113.664L74.315 113.668V114.634C74.315 117.382 73.2235 120.017 71.2805 121.96C69.3375 123.903 66.7023 124.995 63.9545 124.995C61.2067 124.995 58.5715 123.903 56.6285 121.96C54.6855 120.017 53.594 117.382 53.594 114.634V114.123L53.5937 114.099C53.545 112.018 52.8712 109.999 51.6599 108.305C50.4546 106.62 48.7728 105.335 46.8311 104.614C44.9417 103.787 42.8485 103.541 40.8187 103.909C38.7785 104.279 36.8959 105.252 35.4136 106.702L35.0645 107.051C34.1023 108.014 32.9597 108.778 31.7019 109.3C30.4442 109.821 29.096 110.09 27.7345 110.09C26.3729 110.09 25.0247 109.821 23.767 109.3C22.5092 108.778 21.3666 108.014 20.4044 107.051L20.4036 107.05C19.4403 106.088 18.6761 104.945 18.1547 103.688C17.6334 102.43 17.365 101.082 17.365 99.7201C17.365 98.3585 17.6334 97.0104 18.1547 95.7526C18.6761 94.4949 19.4407 93.3518 20.404 92.3896L20.7449 92.0488L20.7527 92.0408C22.2026 90.5586 23.1752 88.676 23.5451 86.6358C23.9147 84.5974 23.6657 82.4951 22.8303 80.5994C22.0328 78.7414 20.7099 77.1567 19.024 76.0402C17.3367 74.9228 15.3594 74.3231 13.3357 74.3151H12.3658C9.61801 74.3151 6.98277 73.2235 5.03979 71.2805C3.09682 69.3376 2.00526 66.7023 2.00526 63.9545C2.00526 61.2067 3.09682 58.5715 5.03979 56.6285C6.98277 54.6856 9.61801 53.594 12.3658 53.594H12.8771L12.9006 53.5937C14.9823 53.545 17.0012 52.8712 18.6948 51.6599C20.3799 50.4546 21.6655 48.7728 22.3863 46.8311C23.2133 44.9417 23.4586 42.8485 23.0906 40.8187C22.7207 38.7785 21.7481 36.8959 20.2982 35.4136L19.9491 35.0645C18.9858 34.1023 18.2216 32.9597 17.7002 31.7019C17.1788 30.4442 16.9105 29.096 16.9105 27.7345C16.9105 26.3729 17.1788 25.0247 17.7002 23.767C18.2216 22.5093 18.9858 21.3666 19.9491 20.4044L19.9499 20.4036C20.9121 19.4403 22.0547 18.6761 23.3125 18.1547C24.5702 17.6334 25.9184 17.365 27.2799 17.365C28.6415 17.365 29.9896 17.6334 31.2474 18.1547C32.5051 18.6761 33.6482 19.4407 34.6104 20.404L34.9513 20.7449L34.9592 20.7527C36.4414 22.2026 38.324 23.1752 40.3642 23.5451C42.3333 23.9022 44.3621 23.682 46.2066 22.9135H46.4553C46.591 22.9135 46.7254 22.8859 46.8502 22.8324C48.7104 22.0352 50.2968 20.7114 51.4143 19.024C52.5317 17.3367 53.1314 15.3594 53.1395 13.3357L53.1395 13.3317V12.3658C53.1395 9.61801 54.231 6.98277 56.174 5.03979Z" fill="black"/>
</svg>
