<svg width="35" height="35" viewBox="0 0 35 35" fill="none" xmlns="http://www.w3.org/2000/svg">
<path d="M17.7986 0C27.2967 0 34.999 7.70234 34.999 17.2004C34.999 26.6985 27.2967 34.4009 17.7986 34.4009C8.30052 34.4009 0.598171 26.6985 0.598171 17.2004C0.598171 7.70234 8.30052 0 17.7986 0ZM7.98137 21.2725C8.02914 22.3239 8.19632 23.0417 8.44041 23.67C8.95351 24.9967 10.0023 26.0455 11.329 26.5586C11.9571 26.8027 12.6752 26.9696 13.7263 27.0177C14.7795 27.0657 15.116 27.0772 17.7983 27.0772C20.4809 27.0772 20.8171 27.0657 21.8706 27.0177C22.9218 26.9696 23.6399 26.8027 24.2679 26.5586C24.9272 26.3106 25.524 25.9219 26.0175 25.4193C26.5198 24.9261 26.9085 24.329 27.1565 23.67C27.4006 23.0419 27.5678 22.3239 27.6156 21.2727C27.6641 20.2192 27.6754 19.8827 27.6754 17.2004C27.6754 14.5181 27.6641 14.1816 27.6158 13.1284C27.5681 12.077 27.4011 11.3592 27.1571 10.7308C26.909 10.0718 26.5201 9.47472 26.0175 8.98156C25.5243 8.47896 24.9272 8.09026 24.2682 7.84224C23.6399 7.59815 22.922 7.43123 21.8706 7.3832C20.8174 7.33517 20.4809 7.32362 17.7986 7.32362C15.1163 7.32362 14.7798 7.33517 13.7266 7.38346C12.6752 7.43123 11.9573 7.59815 11.329 7.84197C10.67 8.09 10.0729 8.47896 9.57947 8.98156C9.07713 9.47498 8.68817 10.0718 8.44041 10.7308C8.19606 11.3592 8.02914 12.077 7.98111 13.1284C7.93308 14.1816 7.92179 14.5181 7.92179 17.2004C7.92179 19.8827 7.93308 20.2192 7.98137 21.2725Z" fill="#7C7C7C"/>
</svg>
